<svg width="36" height="36" viewBox="0 0 36 36" fill="none" xmlns="http://www.w3.org/2000/svg">
<path d="M18 36C27.9411 36 36 27.9411 36 18C36 8.05887 27.9411 0 18 0C8.05887 0 0 8.05887 0 18C0 27.9411 8.05887 36 18 36Z" fill="#96C43D"/>
<path d="M13.3984 26.1198L22.654 35.3753C30.3196 33.3312 35.9978 26.3469 35.9978 17.9999V17.4889L28.7297 10.7886L13.3984 26.1198Z" fill="#7FAC29"/>
<path d="M18.4538 22.0313C19.2488 22.8263 19.2488 24.1891 18.4538 24.984L16.8071 26.6307C16.0122 27.4257 14.6494 27.4257 13.8544 26.6307L6.64309 19.3626C5.84814 18.5676 5.84814 17.2048 6.64309 16.4099L8.28978 14.7632C9.08473 13.9683 10.4475 13.9683 11.2425 14.7632L18.4538 22.0313Z" fill="white"/>
<path d="M24.7602 9.48244C25.5552 8.68749 26.9179 8.68749 27.7129 9.48244L29.3596 11.1291C30.1545 11.9241 30.1545 13.2869 29.3596 14.0818L16.8675 26.5171C16.0725 27.3121 14.7097 27.3121 13.9148 26.5171L12.2681 24.8705C11.4731 24.0755 11.4731 22.7127 12.2681 21.9178L24.7602 9.48244Z" fill="white"/>
</svg>
