<svg width="32" height="33" viewBox="0 0 32 33" fill="none" xmlns="http://www.w3.org/2000/svg">
<rect y="0.5" width="32" height="32" rx="4" fill="#EB722E"/>
<g clip-path="url(#clip0_3360_4208)">
<path d="M16.5067 16.2901C19.217 16.2893 21.4122 14.2084 21.4114 11.6434C21.4105 9.07753 19.2126 6.99917 16.5032 7C13.7939 7.00083 11.5977 9.08167 11.5986 11.6467C11.6021 14.2109 13.7983 16.2885 16.5067 16.2901ZM16.5067 9.72313C17.6293 9.72313 18.5394 10.5848 18.5394 11.6475C18.5394 12.7103 17.6293 13.5711 16.5067 13.5711C15.3842 13.5711 14.4741 12.7095 14.4741 11.6467C14.4758 10.5848 15.385 9.72396 16.5067 9.72313ZM18.4904 20.0802C19.5002 19.8633 20.4637 19.485 21.3405 18.9628C22.0085 18.5547 22.2008 17.7121 21.7698 17.0797C21.3458 16.4573 20.4733 16.2694 19.8071 16.6576C17.7867 17.8536 15.2216 17.8536 13.2011 16.6576C12.5306 16.2595 11.6449 16.4499 11.2227 17.0839C10.7987 17.7187 10.998 18.5597 11.6694 18.9611C11.6703 18.9611 11.6712 18.9619 11.6712 18.9619C12.5472 19.4834 13.5106 19.8616 14.5195 20.0793L11.7761 22.6766C11.2297 23.2229 11.255 24.0854 11.8329 24.6027C12.3881 25.0993 13.2553 25.0993 13.8105 24.6027L16.505 22.0501L19.2012 24.6027C19.7625 25.1333 20.6709 25.1333 21.2321 24.6027C21.7925 24.0713 21.7925 23.2113 21.2321 22.68L18.4904 20.0802Z" fill="white"/>
</g>
<defs>
<clipPath id="clip0_3360_4208">
<rect width="11" height="18" fill="white" transform="translate(11 7)"/>
</clipPath>
</defs>
</svg>
