<svg width="32" height="33" viewBox="0 0 32 33" fill="none" xmlns="http://www.w3.org/2000/svg">
<rect y="0.5" width="32" height="32" rx="4" fill="#0063DB"/>
<path d="M22.8082 15.5824C23.0585 15.2215 23.2572 14.932 23.4039 14.7135C24.4607 13.1464 24.9188 12.1453 24.7784 11.7089L24.7233 11.6067C24.6867 11.5453 24.5919 11.4889 24.4393 11.4379C24.2865 11.3869 24.091 11.3787 23.8529 11.4124L21.2138 11.4331C21.1528 11.4264 21.0912 11.4279 21.0305 11.4379C20.9694 11.4482 20.9298 11.4586 20.9113 11.4685C20.8929 11.4789 20.8777 11.4873 20.8656 11.4941L20.829 11.5247C20.7985 11.5451 20.7649 11.5809 20.7283 11.6322C20.6916 11.6834 20.6608 11.7428 20.6366 11.8111C20.3495 12.6355 20.0227 13.4022 19.6561 14.1108C19.43 14.5333 19.2222 14.8998 19.0331 15.2094C18.8437 15.5197 18.6848 15.7478 18.5565 15.8941C18.4283 16.0405 18.3121 16.1583 18.2084 16.2466C18.1043 16.3355 18.025 16.3727 17.9702 16.3592C17.9181 16.3465 17.8661 16.3328 17.8144 16.3181C17.7288 16.257 17.66 16.1737 17.6082 16.0678C17.5563 15.9625 17.5212 15.8295 17.5028 15.6693C17.4846 15.5093 17.4737 15.3712 17.4708 15.2552C17.4676 15.1394 17.4692 14.9761 17.4755 14.7646C17.4816 14.5533 17.4846 14.4105 17.4846 14.3353C17.4846 14.0767 17.4892 13.7955 17.4984 13.4922C17.5075 13.1892 17.5152 12.9488 17.5212 12.7716C17.5273 12.5947 17.5303 12.4072 17.5303 12.2095C17.5303 12.0122 17.5196 11.8569 17.4981 11.7444C17.4765 11.6319 17.4443 11.5223 17.402 11.4174C17.3591 11.312 17.2966 11.23 17.214 11.1723C17.1315 11.1143 17.0293 11.0685 16.9071 11.0342C16.5831 10.9522 16.1708 10.9084 15.67 10.9013C14.5337 10.8882 13.8036 10.9698 13.4799 11.1468C13.3516 11.2219 13.2355 11.3239 13.1317 11.4535C13.0216 11.6035 13.0065 11.6854 13.086 11.6985C13.4526 11.7599 13.712 11.9066 13.8648 12.1382L13.9198 12.2607C13.9625 12.3496 14.0052 12.5062 14.0481 12.731C14.0908 12.9558 14.1183 13.2045 14.1307 13.4771C14.1612 13.9745 14.1612 14.4001 14.1307 14.7547C14.1001 15.1092 14.0712 15.385 14.0437 15.5822C14.0161 15.7799 13.9749 15.9399 13.92 16.0624C13.865 16.1854 13.8284 16.2603 13.81 16.2876C13.7915 16.3147 13.7764 16.3318 13.7642 16.3387C13.6853 16.3725 13.6014 16.3898 13.5168 16.3897C13.4312 16.3897 13.3274 16.3418 13.2052 16.2463C13.083 16.1513 12.9561 16.02 12.825 15.853C12.6935 15.6862 12.5455 15.4527 12.3804 15.1527C12.2155 14.8533 12.0443 14.4987 11.8673 14.09L11.7208 13.7935C11.6291 13.603 11.5039 13.3252 11.345 12.9607C11.1862 12.5963 11.0456 12.2438 10.9236 11.9028C10.8746 11.7599 10.8013 11.6509 10.7036 11.5758L10.6579 11.5451C10.6274 11.518 10.5784 11.4889 10.5112 11.4584C10.4434 11.4276 10.3727 11.4052 10.3004 11.3918L7.78957 11.4122C7.53302 11.4122 7.35901 11.4772 7.26736 11.6067L7.23073 11.6679C7.21222 11.7021 7.20312 11.7568 7.20312 11.8315C7.20312 11.9066 7.22154 11.9985 7.25817 12.1073C7.62479 13.0682 8.02342 13.9948 8.45398 14.8871C8.88478 15.7799 9.25891 16.4989 9.57656 17.0439C9.89422 17.5893 10.218 18.1034 10.548 18.5873C10.878 19.0711 11.0963 19.3809 11.2031 19.517C11.31 19.6536 11.3939 19.7558 11.4551 19.8237L11.6841 20.0692C11.8306 20.2326 12.0461 20.4285 12.3302 20.6569C12.6143 20.8853 12.9287 21.1101 13.2741 21.3312C13.6191 21.5528 14.021 21.7331 14.479 21.8731C14.9371 22.013 15.3831 22.0691 15.8169 22.0416H16.8707C17.0846 22.0213 17.2464 21.9466 17.3563 21.8168L17.3929 21.7658C17.4172 21.7252 17.4402 21.662 17.4617 21.5769C17.4829 21.4919 17.4939 21.398 17.4939 21.296C17.4876 21.0031 17.5077 20.7386 17.5534 20.5039C17.5991 20.2687 17.6511 20.0918 17.7092 19.9722C17.7673 19.8532 17.8328 19.7526 17.9062 19.6707C17.9795 19.5887 18.0313 19.5398 18.062 19.5226C18.0926 19.5059 18.1171 19.494 18.1353 19.4867C18.2818 19.4323 18.4544 19.4852 18.6531 19.6452C18.8516 19.8056 19.0379 20.0028 19.2121 20.238C19.3861 20.4731 19.5953 20.737 19.8398 21.0301C20.084 21.323 20.2979 21.541 20.4812 21.6841L20.6645 21.8071C20.7867 21.8886 20.9453 21.9635 21.141 22.0319C21.3365 22.0998 21.5077 22.117 21.6541 22.0829L24 22.0418C24.2321 22.0418 24.4124 21.9994 24.5407 21.9141C24.669 21.8294 24.7453 21.7351 24.7698 21.6331C24.794 21.5309 24.7957 21.4156 24.7744 21.2858C24.753 21.1565 24.7315 21.0662 24.7103 21.0152C24.6889 20.9642 24.669 20.9213 24.6506 20.8875C24.3451 20.2743 23.7617 19.5212 22.9004 18.6287L22.8819 18.6084L22.8728 18.598L22.8638 18.5881H22.8546C22.4634 18.1724 22.2162 17.893 22.1124 17.7497C21.923 17.4775 21.8801 17.2015 21.9841 16.9222C22.0569 16.7103 22.3317 16.2639 22.8082 15.5824Z" fill="white"/>
</svg>
