<svg width="32" height="33" viewBox="0 0 32 33" fill="none" xmlns="http://www.w3.org/2000/svg">
<rect y="0.5" width="32" height="32" rx="4" fill="#4CAF50"/>
<g clip-path="url(#clip0_3360_4212)">
<path d="M16.0027 5H15.9973C9.93213 5 5 9.9335 5 16C5 18.4062 5.7755 20.6365 7.09413 22.4474L5.72325 26.5339L9.95138 25.1823C11.6908 26.3345 13.7656 27 16.0027 27C22.0679 27 27 22.0651 27 16C27 9.93488 22.0679 5 16.0027 5Z" fill="white"/>
<path d="M22.4037 20.5333C22.1384 21.2826 21.0851 21.9041 20.245 22.0856C19.6702 22.208 18.9195 22.3056 16.3922 21.2579C13.1596 19.9186 11.0779 16.6338 10.9156 16.4206C10.7603 16.2075 9.60938 14.6813 9.60938 13.1028C9.60938 11.5243 10.411 10.7556 10.7341 10.4256C10.9995 10.1548 11.4381 10.031 11.8589 10.031C11.995 10.031 12.1174 10.0379 12.2274 10.0434C12.5505 10.0571 12.7127 10.0764 12.9259 10.5865C13.1912 11.2259 13.8375 12.8044 13.9145 12.9666C13.9929 13.1289 14.0713 13.3489 13.9613 13.562C13.8581 13.782 13.7674 13.8796 13.6051 14.0666C13.4429 14.2536 13.2889 14.3966 13.1266 14.5974C12.9781 14.772 12.8104 14.959 12.9974 15.2821C13.1844 15.5984 13.8306 16.653 14.7821 17.5C16.01 18.5931 17.0055 18.9424 17.3616 19.0909C17.627 19.2009 17.9432 19.1748 18.1371 18.9685C18.3832 18.7031 18.6871 18.2631 18.9965 17.83C19.2165 17.5193 19.4943 17.4808 19.7858 17.5908C20.0828 17.6939 21.6544 18.4708 21.9775 18.6316C22.3006 18.7939 22.5137 18.8709 22.5921 19.007C22.6691 19.1431 22.6691 19.7825 22.4037 20.5333Z" fill="#4CAF50"/>
</g>
<defs>
<clipPath id="clip0_3360_4212">
<rect width="22" height="22" fill="white" transform="translate(5 5)"/>
</clipPath>
</defs>
</svg>
